PathFileType	3	(X/Y/Z)	D:\Vicon Database\Healthy Subjects\S0040\Jan. 30, 2020\Force Plate Walk 8.trc
DataRate	CameraRate	NumFrames	NumMarkers	Units	OrigDataRate	OrigDataStartFrame	OrigNumFrames
100.0	100.0	5	53	mm	100.0	268	319	
Frame#	Time	right_foot_cluster2			right_foot_cluster3			sternum_cluster1			sternum_cluster2			sternum_cluster3			left_asis			right_asis			left_psis			right_psis			sacrum_cluster1			sacrum_cluster2			sacrum_cluster3			left_lat_femoral_epicondyle			left_anterior_thigh15			left_anterior_thigh25			left_anterior_thigh50			left_lateral_thigh25			left_lateral_thigh50			left_thigh_cluster1			left_thigh_cluster2			left_thigh_cluster3			left_fibular_head			left_tibial_tuberosity			left_anterior_shank30			left_lateral_malleolus			left_shank_cluster1			left_shank_cluster2			left_shank_cluster3			left_heel			left_metatarsal2			left_foot_cluster1			left_foot_cluster2			left_foot_cluster3			right_lat_femoral_epicondyle			right_anterior_thigh15			right_anterior_thigh25			right_anterior_thigh50			right_lateral_thigh25			right_lateral_thigh50			right_thigh_cluster1			right_thigh_cluster2			right_thigh_cluster3			right_fibular_head			right_tibial_tuberosity			right_lateral_distal_shank			right_anterior_shank30			right_lateral_malleolus			right_shank_cluster1			right_shank_cluster2			right_shank_cluster3			right_heel			right_metatarsal2			right_foot_cluster1			
		X1	Y1	Z1	X2	Y2	Z2	X3	Y3	Z3	X4	Y4	Z4	X5	Y5	Z5	X6	Y6	Z6	X7	Y7	Z7	X8	Y8	Z8	X9	Y9	Z9	X10	Y10	Z10	X11	Y11	Z11	X12	Y12	Z12	X13	Y13	Z13	X14	Y14	Z14	X15	Y15	Z15	X16	Y16	Z16	X17	Y17	Z17	X18	Y18	Z18	X19	Y19	Z19	X20	Y20	Z20	X21	Y21	Z21	X22	Y22	Z22	X23	Y23	Z23	X24	Y24	Z24	X25	Y25	Z25	X26	Y26	Z26	X27	Y27	Z27	X28	Y28	Z28	X29	Y29	Z29	X30	Y30	Z30	X31	Y31	Z31	X32	Y32	Z32	X33	Y33	Z33	X34	Y34	Z34	X35	Y35	Z35	X36	Y36	Z36	X37	Y37	Z37	X38	Y38	Z38	X39	Y39	Z39	X40	Y40	Z40	X41	Y41	Z41	X42	Y42	Z42	X43	Y43	Z43	X44	Y44	Z44	X45	Y45	Z45	X46	Y46	Z46	X47	Y47	Z47	X48	Y48	Z48	X49	Y49	Z49	X50	Y50	Z50	X51	Y51	Z51	X52	Y52	Z52	X53	Y53	Z53	
268	2.67	3800.5024	107.26096	-214.83577	3799.281	110.04388	-252.30399	3704.3293	1452.5634	-181.55084	3695.5967	1423.4196	-173.76582	3695.48	1426.6312	-212.24709	3751.4453	1077.78	-61.43412	3745.7729	1081.1931	-308.53354																3665.2998	574.57642	-27.292801	3590.6868	672.83337	-71.788864	3611.9426	760.75726	-63.162327	3671.7664	885.75061	-55.925804	3714.0547	714.89001	-6.2797799	3764.7349	855.71741	14.509138	3748.0747	811.84363	23.046549	3741.8477	782.59241	20.877274	3710.1472	802.07385	23.443396	3671.9055	503.30783	-19.017256	3615.1589	477.11057	-68.884438	3752.2039	260.16278	-85.700706	3849.4683	178.66382	-60.319729	3639.6211	423.15204	-97.740189	3649.1519	397.42429	-88.815018	3658.3628	402.7287	-126.08826	3928.01	174.87787	-107.1526	3727.6365	90.414536	-83.415817	3762.4753	157.46574	-81.038811	3748.9236	132.22722	-69.41877	3739.0815	135.26248	-106.4857	3845.7974	537.94525	-305.36206	3755.8308	620.58917	-249.97531	3733.4893	697.72211	-252.81516	3717.9031	827.35193	-268.90085	3829.3606	696.22278	-335.48743	3815.5547	842.34357	-366.56549	3830.4453	789.16296	-371.53784	3818.5496	763.99146	-366.63913	3858.5149	766.3786	-363.95972	3863.4802	470.54971	-306.67773	3809.0942	459.09741	-261.69623	3901.8733	203.2681	-284.68604	3855.0938	214.0009	-239.65652	3911.0786	100.03678	-267.08286	3827.5977	396.43961	-204.7726	3835.8059	369.41196	-196.91521	3812.1086	364.298	-224.87822	3985.9814	65.518776	-231.84006	3767.4431	75.053886	-223.66507	3824.291	120.41451	-224.88551
269	2.68	3800.1191	106.77581	-214.47972	3799.4973	109.9083	-252.30783	3693.4277	1452.1224	-181.32747	3684.8013	1422.6617	-173.74579	3684.5181	1426.1191	-212.00716	3741.2327	1077.4276	-61.422298	3737.0154	1079.7621	-310.09964																3650.106	576.01447	-28.407616	3577.2327	675.55219	-73.510658	3599.3892	763.28577	-64.545746	3660.572	887.3783	-56.687794	3699.6741	716.63324	-6.1581001	3752.5725	856.30145	14.946679	3734.9619	812.73938	23.405231	3737.4858	779.2793	18.93058	3696.9995	804.10046	23.550648	3655.2134	503.25943	-19.99959	3597.0879	480.01514	-70.156136	3722.4417	256.69379	-85.085991	3815.2546	169.64763	-59.585011	3618.4685	425.0687	-98.566231	3626.2849	398.73007	-88.959946	3636.259	403.26608	-126.59805	3893.772	161.49156	-106.12033	3688.6826	88.853569	-83.546135	3727.3618	153.88786	-80.942879	3712.4431	129.44337	-69.314301	3703.0269	133.23117	-106.46676	3842.4531	537.51941	-305.35098	3751.6211	619.11029	-249.71906	3726.4385	696.51312	-252.75365	3710.0837	825.56641	-268.81625	3823.8127	696.21057	-335.72171	3807.6934	841.39697	-366.39545	3823.688	788.7533	-371.03503	3811.8726	763.35492	-366.69461	3851.7009	766.23389	-363.89734	3860.8301	470.5954	-306.74988	3806.6519	458.71069	-261.62976	3900.4248	203.18164	-284.64108	3853.1877	214.27586	-239.48456	3910.8569	100.23929	-266.87411	3825.3364	395.3631	-204.77782	3834.1492	369.00143	-196.4664	3810.052	364.12909	-224.90538	3985.9583	65.942551	-231.72363	3767.2231	74.555321	-223.45465	3823.8831	120.00716	-224.37529
270	2.69	3799.6208	106.48407	-213.94327	3798.6785	109.52472	-251.59544	3682.532	1450.8096	-181.43443	3673.8503	1421.4421	-173.52313	3673.6133	1424.998	-211.87363	3731.0813	1076.7837	-61.839268	3726.6614	1078.5887	-309.17993																3635.1179	577.22119	-28.836096	3564.2881	678.14069	-75.05687	3587.0613	765.57892	-65.912308	3649.4792	888.73181	-57.406559	3685.8223	717.77899	-6.4109988	3740.4307	857.00525	15.307968	3722.0112	813.60999	23.582056	3715.0776	784.65863	21.295965	3684.0088	805.09589	23.849415	3637.3428	504.47244	-20.800335	3579.4304	483.01196	-71.567314	3692.6982	253.08311	-85.18985	3780.5061	161.42326	-59.195751	3597.9709	426.80295	-99.384079	3603.5576	400.67941	-90.103874	3614.4077	404.4624	-127.28352	3858.6018	148.45695	-104.87946	3649.8757	87.473984	-83.796944	3691.9409	150.52141	-80.861343	3675.1313	127.53577	-69.080956	3667.0981	130.5224	-106.29221	3839.1675	537.48932	-305.4455	3746.7629	617.59137	-249.53458	3720.4531	694.51404	-252.67157	3702.1064	823.3902	-269.00549	3818.0686	696.01813	-335.80063	3799.5989	840.59668	-366.42661	3816.7834	788.37976	-371.05038	3804.8816	762.49316	-366.25928	3843.9905	764.78223	-363.02216	3858.1697	470.44949	-306.60748	3802.9692	458.6842	-261.29376	3899.3481	203.16103	-284.38379	3851.8152	214.09575	-239.28349	3910.5374	100.34618	-266.54578	3823.1201	395.62189	-204.4572	3831.5322	368.88159	-196.65352	3807.4495	363.86923	-225.22392	3984.9771	65.156021	-231.73964	3766.9209	74.089241	-223.28412	3823.5508	119.52263	-224.00023
271	2.7	3799.4778	106.4209	-213.57785	3798.488	109.36402	-251.2086	3671.6382	1449.2982	-181.32823	3663.0247	1420.3751	-173.18419	3662.6387	1423.8301	-211.81989	3720.9978	1075.7429	-61.685612	3716.0251	1077.6024	-309.81671																3620.6755	577.87671	-28.948086	3551.7664	680.16547	-76.287796	3575.0439	767.29047	-67.08844	3638.4692	889.87122	-57.835587	3672.6724	718.2627	-6.9368496	3728.4673	857.26404	15.482753	3709.5801	813.88593	23.919113	3700.1145	785.55603	21.389097	3671.3958	805.92273	23.374371	3620.4058	504.75967	-21.509739	3562.6411	485.56168	-72.566643	3662.3635	250.14543	-85.121971	3745.1909	153.34488	-58.311848	3577.9316	429.0936	-100.06593	3580.7085	402.45023	-90.358513	3593.3833	405.11963	-127.90142	3822.7771	135.89709	-103.61804	3611.3445	86.515373	-83.827133	3656.3767	147.45004	-80.7901	3638.447	125.12727	-69.316109	3629.8613	130.07307	-106.41251	3835.9055	537.28699	-305.49701	3742.5251	615.95361	-249.54216	3714.0303	692.75854	-252.33206	3693.8867	821.51575	-268.74591	3811.8853	695.03839	-335.15948	3791.6072	840.17975	-365.94928	3809.5544	787.84412	-370.82623	3798.6704	761.66205	-365.13123	3837.4473	765.58624	-363.80249	3855.7498	470.50119	-306.64072	3801.4788	457.66916	-261.64099	3898.1489	203.30016	-283.92331	3850.9617	214.15114	-238.57306	3910.1365	100.61031	-265.94873	3821.2222	395.79269	-204.13029	3829.4321	368.70053	-196.6171	3806.1558	363.13614	-224.31358	3985.5381	66.25029	-231.24913	3767.1475	73.60379	-223.15359	3823.5088	119.20834	-223.39938
272	2.71	3799.2349	105.91628	-213.18658	3798.301	109.2424	-250.64772	3660.5833	1448.2965	-181.30942	3651.9546	1419.2087	-172.94757	3651.4663	1422.8364	-211.52473	3710.4192	1074.8806	-61.598766	3705.5042	1075.9702	-309.95279																3606.6577	578.19482	-29.371305	3539.6299	681.49823	-77.663216	3563.1519	768.47974	-68.146545	3627.4338	890.35419	-58.346027	3659.8298	718.22675	-7.1752133	3716.9214	856.61237	15.584812	3697.405	813.64166	23.940727	3689.7734	784.77905	21.18642	3659.3008	806.62866	23.810183	3603.9329	504.2973	-21.838089	3546.415	487.67932	-73.609856	3632.9602	247.01714	-85.116936	3709.4004	145.9588	-57.61787	3558.7195	430.22952	-100.87074	3560.2537	403.83356	-91.488197	3573.0796	406.14307	-128.69099	3786.3115	124.16776	-102.08965	3571.843	86.444962	-83.941879	3620.5808	145.06297	-80.773422	3601.3306	123.98582	-69.588875	3593.2446	128.91422	-106.68184	3832.446	536.65363	-304.58801	3739.0842	614.15485	-249.47437	3708.0994	690.53955	-251.85382	3685.7263	819.06519	-268.74921	3805.6841	694.36267	-335.24808	3783.1143	839.12177	-366.20087	3801.9258	786.81567	-370.46194	3790.5173	760.91986	-365.86124	3829.4805	764.29053	-362.86032	3852.8645	470.55414	-306.1658	3799.1467	457.14059	-261.34869	3896.8936	203.49475	-283.47314	3849.5857	214.00967	-238.49287	3909.6555	100.96464	-265.34927	3818.7393	395.1369	-204.12659	3827.2598	368.23151	-196.74316	3804.177	363.01334	-224.19292	3985.6152	67.089874	-230.97958	3766.1843	73.084679	-222.84982	3823.4365	118.76232	-223.01161
